<svg id="e2yxd9xl38wy1" xmlns="http://www.w3.org/2000/svg" xmlns:xlink="http://www.w3.org/1999/xlink" viewBox="0 0 409.610000 409.610000" shape-rendering="geometricPrecision" text-rendering="geometricPrecision" width="409.610000" height="409.610000"><style><![CDATA[#e2yxd9xl38wy13_to {animation: e2yxd9xl38wy13_to__to 1000ms linear 1 normal forwards}@keyframes e2yxd9xl38wy13_to__to { 0% {transform: translate(10.575347px,536.029702px)} 30% {transform: translate(37.473603px,504.825834px)} 60% {transform: translate(72.359603px,501.808366px)} 100% {transform: translate(72.359603px,501.808366px)} }#e2yxd9xl38wy14_to {animation: e2yxd9xl38wy14_to__to 1000ms linear 1 normal forwards}@keyframes e2yxd9xl38wy14_to__to { 0% {transform: translate(0px,0px)} 30% {transform: translate(29.704558px,-34.221336px)} 60% {transform: translate(64.590558px,-37.238804px)} 100% {transform: translate(64.590558px,-37.238804px)} }#e2yxd9xl38wy16_to {animation: e2yxd9xl38wy16_to__to 1000ms linear 1 normal forwards}@keyframes e2yxd9xl38wy16_to__to { 0% {transform: translate(-24.285000px,48.903000px)} 30% {transform: translate(8.917013px,11.077328px)} 60% {transform: translate(43.803013px,11.917898px)} 100% {transform: translate(43.803013px,11.917898px)} }]]></style><path id="e2yxd9xl38wy2" d="M387.259000,23.659000L75.345000,23.659000C63.007000,23.659000,53.004000,33.662000,53.004000,46L53.004000,357.914000C53.004000,370.252000,63.007000,380.255000,75.345000,380.255000L387.259000,380.255000C399.598000,380.255000,409.600000,370.252000,409.600000,357.914000L409.600000,46C409.600000,33.661000,399.598000,23.659000,387.259000,23.659000Z" fill="rgb(235,240,243)" stroke="none" stroke-width="1"/><path id="e2yxd9xl38wy3" d="M372.689000,293.907000C380.185000,293.907000,385.877000,287.011000,384.318000,279.679000C377.775000,248.899000,350.438000,225.808000,317.707000,225.808000C284.976000,225.808000,257.639000,248.899000,251.096000,279.679000C249.537000,287.011000,255.229000,293.907000,262.725000,293.907000L372.689000,293.907000Z" fill="rgb(246,195,88)" stroke="none" stroke-width="1"/><g id="e2yxd9xl38wy4"><path id="e2yxd9xl38wy5" d="M251.096000,279.678000C257.639000,248.898000,284.976000,225.807000,317.707000,225.807000L317.707000,293.907000L262.725000,293.907000C255.229000,293.907000,249.537000,287.011000,251.096000,279.678000Z" fill="rgb(252,212,98)" stroke="none" stroke-width="1"/><path id="e2yxd9xl38wy6" d="M350.283000,186.785000C350.283000,204.776000,335.698000,227.020000,317.707000,227.020000C299.716000,227.020000,285.131000,204.776000,285.131000,186.785000C285.131000,168.794000,299.716000,154.209000,317.707000,154.209000C335.698000,154.209000,350.283000,168.794000,350.283000,186.785000Z" fill="rgb(252,212,98)" stroke="none" stroke-width="1"/></g><path id="e2yxd9xl38wy7" d="M317.707000,227.020000C335.698000,227.020000,350.283000,204.776000,350.283000,186.785000C350.283000,168.794000,335.698000,154.209000,317.707000,154.209000L317.707000,227.020000Z" fill="rgb(246,195,88)" stroke="none" stroke-width="1"/><path id="e2yxd9xl38wy8" d="M409.600000,46C409.600000,33.662000,399.598000,23.659000,387.259000,23.659000L75.345000,23.659000C63.007000,23.659000,53.004000,33.662000,53.004000,46L53.004000,75.937000L409.600000,75.937000L409.600000,46Z" fill="rgb(100,121,138)" stroke="none" stroke-width="1"/><rect id="e2yxd9xl38wy9" width="356.608000" height="16.246000" rx="0" ry="0" transform="matrix(1 0 0 1 53.00200000000000 75.93500000000000)" fill="rgb(58,85,106)" stroke="none" stroke-width="1"/><path id="e2yxd9xl38wy10" d="M303.120000,43.028000C310.887000,55.806000,297.540000,69.154000,284.762000,61.386000C283.625000,60.695000,282.629000,59.699000,281.938000,58.562000C274.171000,45.784000,287.518000,32.436000,300.296000,40.204000C301.433000,40.895000,302.428000,41.890000,303.120000,43.028000Z" fill="rgb(252,212,98)" stroke="none" stroke-width="1"/><path id="e2yxd9xl38wy11" d="M338.007000,43.028000C345.774000,55.806000,332.427000,69.154000,319.649000,61.386000C318.512000,60.695000,317.516000,59.699000,316.825000,58.562000C309.058000,45.784000,322.405000,32.436000,335.183000,40.204000C336.320000,40.895000,337.315000,41.890000,338.007000,43.028000Z" fill="rgb(68,196,161)" stroke="none" stroke-width="1"/><path id="e2yxd9xl38wy12" d="M372.893000,43.028000C380.660000,55.806000,367.313000,69.154000,354.535000,61.386000C353.398000,60.695000,352.402000,59.699000,351.711000,58.562000C343.944000,45.784000,357.291000,32.436000,370.069000,40.204000C371.206000,40.895000,372.202000,41.890000,372.893000,43.028000Z" fill="rgb(229,99,83)" stroke="none" stroke-width="1"/><g id="e2yxd9xl38wy13_to" transform="translate(10.575347,536.029702)"><rect id="e2yxd9xl38wy13" width="24.771000" height="27.059000" rx="0" ry="0" transform="rotate(218.059401) skewX(0) skewY(0) scale(1.000036,1.000036) translate(85.893000,251.962000)" fill="rgb(220,135,68)" stroke="none" stroke-width="1"/></g><g id="e2yxd9xl38wy14_to" transform="translate(0,0)"><path id="e2yxd9xl38wy14" d="M6.790000,382.344000L6.790000,382.344000C-3.476000,374.306000,-1.772000,356.311000,9.679000,343.202000L77.477000,266.393000L102.401000,285.909000L44.097000,370.152000C34.116000,384.411000,17.056000,390.382000,6.790000,382.344000Z" transform="translate(0,0)" fill="rgb(209,82,65)" stroke="none" stroke-width="1"/></g><g id="e2yxd9xl38wy15"/><g id="e2yxd9xl38wy16_to" transform="translate(-24.285000,48.903000)"><g id="e2yxd9xl38wy16" transform="rotate(-51.939186) skewX(-0) skewY(0) scale(1.000004,1.000004) translate(0,0)"><ellipse id="e2yxd9xl38wy17" rx="76.385000" ry="76.385000" transform="matrix(-0.61650000000000 -0.78740000000000 0.78740000000000 -0.61650000000000 -16.69796900000000 226.38652669999993)" fill="rgb(100,121,138)" stroke="none" stroke-width="1"/><ellipse id="e2yxd9xl38wy18" rx="53.105000" ry="53.105000" transform="matrix(-0.61650000000000 -0.78740000000000 0.78740000000000 -0.61650000000000 -16.69796900000000 226.38652669999993)" fill="rgb(213,214,219)" stroke="none" stroke-width="1"/></g></g></svg>