<svg id="ejzwn02gp1k1" xmlns="http://www.w3.org/2000/svg" xmlns:xlink="http://www.w3.org/1999/xlink" viewBox="0 0 519.610000 512" shape-rendering="geometricPrecision" text-rendering="geometricPrecision" width="519.610000" height="512"><style><![CDATA[#ejzwn02gp1k7 {animation: ejzwn02gp1k7_f_o 1000ms linear infinite normal forwards}@keyframes ejzwn02gp1k7_f_o { 0% {fill-opacity: 1} 50% {fill-opacity: 0} 100% {fill-opacity: 1} }#ejzwn02gp1k9 {animation: ejzwn02gp1k9_f_o 1000ms linear infinite normal forwards}@keyframes ejzwn02gp1k9_f_o { 0% {fill-opacity: 1} 50% {fill-opacity: 0} 100% {fill-opacity: 1} }#ejzwn02gp1k11 {animation: ejzwn02gp1k11_f_o 1000ms linear infinite normal forwards}@keyframes ejzwn02gp1k11_f_o { 0% {fill-opacity: 1} 50% {fill-opacity: 0} 100% {fill-opacity: 1} }#ejzwn02gp1k13 {animation: ejzwn02gp1k13_f_o 1000ms linear infinite normal forwards}@keyframes ejzwn02gp1k13_f_o { 0% {fill-opacity: 1} 50% {fill-opacity: 0} 100% {fill-opacity: 1} }#ejzwn02gp1k15 {animation: ejzwn02gp1k15_f_o 1000ms linear infinite normal forwards}@keyframes ejzwn02gp1k15_f_o { 0% {fill-opacity: 1} 50% {fill-opacity: 0} 100% {fill-opacity: 1} }#ejzwn02gp1k17 {animation: ejzwn02gp1k17_f_o 1000ms linear infinite normal forwards}@keyframes ejzwn02gp1k17_f_o { 0% {fill-opacity: 1} 50% {fill-opacity: 0} 100% {fill-opacity: 1} }#ejzwn02gp1k19 {animation: ejzwn02gp1k19_f_o 1000ms linear infinite normal forwards}@keyframes ejzwn02gp1k19_f_o { 0% {fill-opacity: 1} 50% {fill-opacity: 0} 100% {fill-opacity: 1} }#ejzwn02gp1k26_tr {animation: ejzwn02gp1k26_tr__tr 1000ms linear infinite normal forwards}@keyframes ejzwn02gp1k26_tr__tr { 0% {transform: translate(252.250000px,199.768000px) rotate(720deg)} 100% {transform: translate(252.250000px,199.768000px) rotate(990.240430deg)} }]]></style><g id="ejzwn02gp1k2"><path id="ejzwn02gp1k3" d="M215.339000,464.645000L252.124000,454.645000L288.909000,464.645000L288.909000,467.714000C288.909000,488.030000,272.440000,504.499000,252.124000,504.499000C231.808000,504.499000,215.339000,488.030000,215.339000,467.714000Z" fill="rgb(96,183,255)" stroke="none" stroke-width="1"/><path id="ejzwn02gp1k4" d="M279.220000,464.645000L215.028000,464.645000C207.786000,464.645000,201.915000,458.774000,201.915000,451.532000L201.915000,364.227000L252.124000,354.227000L292.333000,364.227000L292.333000,451.532000C292.334000,458.774000,286.463000,464.645000,279.220000,464.645000Z" fill="rgb(196,226,255)" stroke="none" stroke-width="1"/><path id="ejzwn02gp1k5" d="M275.334000,359.999000L275.334000,451.532000C275.334000,458.774000,269.463000,464.645000,262.221000,464.645000L289.221000,464.645000C296.463000,464.645000,302.335000,458.774000,302.335000,451.532000L302.335000,364.227000Z" fill="rgb(138,201,254)" stroke="none" stroke-width="1"/><g id="ejzwn02gp1k6"><path id="ejzwn02gp1k7" d="M252.250000,48.662000C248.108000,48.662000,244.750000,45.304000,244.750000,41.162000L244.750000,7.500000C244.750000,3.358000,248.108000,0,252.250000,0C256.393000,0,259.750000,3.358000,259.750000,7.500000L259.750000,41.162000C259.750000,45.304000,256.392000,48.662000,252.250000,48.662000Z" fill="rgb(254,212,2)" stroke="none" stroke-width="1"/></g><g id="ejzwn02gp1k8"><path id="ejzwn02gp1k9" d="M364.402000,95.117000C362.483000,95.117000,360.563000,94.385000,359.098000,92.920000C356.169000,89.991000,356.169000,85.242000,359.098000,82.314000L382.901000,58.511000C385.831000,55.582000,390.579000,55.582000,393.508000,58.511000C396.437000,61.440000,396.437000,66.189000,393.508000,69.117000L369.706000,92.920000C368.241000,94.385000,366.321000,95.117000,364.402000,95.117000Z" fill="rgb(254,212,2)" stroke="none" stroke-width="1"/></g><g id="ejzwn02gp1k10"><path id="ejzwn02gp1k11" d="M116.295000,343.224000C114.376000,343.224000,112.456000,342.492000,110.992000,341.027000C108.063000,338.098000,108.063000,333.349000,110.992000,330.421000L134.795000,306.618000C137.724000,303.689000,142.473000,303.689000,145.402000,306.618000C148.331000,309.547000,148.331000,314.296000,145.402000,317.224000L121.599000,341.027000C120.134000,342.492000,118.214000,343.224000,116.295000,343.224000Z" fill="rgb(254,212,2)" stroke="none" stroke-width="1"/></g><g id="ejzwn02gp1k12"><path id="ejzwn02gp1k13" d="M140.098000,95.117000C138.179000,95.117000,136.259000,94.385000,134.795000,92.920000L110.992000,69.117000C108.063000,66.188000,108.063000,61.439000,110.992000,58.511000C113.921000,55.582000,118.670000,55.582000,121.598000,58.511000L145.401000,82.314000C148.330000,85.243000,148.330000,89.992000,145.401000,92.920000C143.937000,94.385000,142.017000,95.117000,140.098000,95.117000Z" fill="rgb(254,212,2)" stroke="none" stroke-width="1"/></g><g id="ejzwn02gp1k14"><path id="ejzwn02gp1k15" d="M388.205000,343.224000C386.285000,343.224000,384.366000,342.492000,382.901000,341.027000L359.098000,317.224000C356.169000,314.295000,356.169000,309.546000,359.098000,306.618000C362.028000,303.688000,366.776000,303.689000,369.705000,306.618000L393.508000,330.421000C396.437000,333.350000,396.437000,338.099000,393.508000,341.027000C392.044000,342.492000,390.124000,343.224000,388.205000,343.224000Z" fill="rgb(254,212,2)" stroke="none" stroke-width="1"/></g><g id="ejzwn02gp1k16"><path id="ejzwn02gp1k17" d="M93.643000,207.269000L59.981000,207.269000C55.839000,207.269000,52.481000,203.911000,52.481000,199.769000C52.481000,195.627000,55.839000,192.269000,59.981000,192.269000L93.643000,192.269000C97.785000,192.269000,101.143000,195.627000,101.143000,199.769000C101.143000,203.911000,97.785000,207.269000,93.643000,207.269000Z" fill="rgb(254,212,2)" stroke="none" stroke-width="1"/></g><g id="ejzwn02gp1k18"><path id="ejzwn02gp1k19" d="M444.519000,207.269000L410.856000,207.269000C406.714000,207.269000,403.356000,203.911000,403.356000,199.769000C403.356000,195.627000,406.714000,192.269000,410.856000,192.269000L444.519000,192.269000C448.662000,192.269000,452.019000,195.627000,452.019000,199.769000C452.019000,203.911000,448.662000,207.269000,444.519000,207.269000Z" fill="rgb(254,212,2)" stroke="none" stroke-width="1"/></g><path id="ejzwn02gp1k20" d="M372.007000,199.769000C372.007000,128.656000,324.802000,70.905000,253.899000,70.022000C182.309000,69.130000,122.492000,128.174000,122.492000,199.769000C122.492000,238.152000,139.159000,272.639000,165.650000,296.394000C184.852000,313.614000,197.370000,337.054000,201.625000,362.492000L201.915000,364.226000L302.334000,364.226000L302.579000,362.759000C306.908000,336.877000,310.112000,313.436000,329.526000,295.780000C355.623000,272.048000,372.007000,237.824000,372.007000,199.769000Z" fill="rgb(254,212,2)" stroke="none" stroke-width="1"/><g id="ejzwn02gp1k21"><path id="ejzwn02gp1k22" d="M312.544000,405.200000L191.956000,405.200000C187.814000,405.200000,184.456000,401.842000,184.456000,397.700000C184.456000,393.558000,187.814000,390.200000,191.956000,390.200000L312.544000,390.200000C316.687000,390.200000,320.044000,393.558000,320.044000,397.700000C320.044000,401.842000,316.686000,405.200000,312.544000,405.200000Z" fill="rgb(96,183,255)" stroke="none" stroke-width="1"/></g><g id="ejzwn02gp1k23"><path id="ejzwn02gp1k24" d="M312.544000,438.672000L191.956000,438.672000C187.814000,438.672000,184.456000,435.314000,184.456000,431.172000C184.456000,427.030000,187.814000,423.672000,191.956000,423.672000L312.544000,423.672000C316.687000,423.672000,320.044000,427.030000,320.044000,431.172000C320.044000,435.315000,316.686000,438.672000,312.544000,438.672000Z" fill="rgb(96,183,255)" stroke="none" stroke-width="1"/></g><path id="ejzwn02gp1k25" d="M253.899000,70.022000C248.827000,69.959000,243.817000,70.207000,238.880000,70.728000C304.135000,77.541000,355.007000,132.710000,355.007000,199.769000C355.007000,237.824000,338.623000,272.048000,312.526000,295.781000C293.112000,313.437000,279.908000,336.877000,275.579000,362.760000L275.334000,364.227000L302.334000,364.227000L302.579000,362.760000C306.908000,336.878000,320.112000,313.437000,339.526000,295.781000C365.623000,272.048000,382.007000,237.824000,382.007000,199.769000C382.007000,128.657000,324.802000,70.905000,253.899000,70.022000Z" fill="rgb(250,198,0)" stroke="none" stroke-width="1"/><g id="ejzwn02gp1k26_tr" transform="translate(252.250000,199.768000) rotate(720)"><path id="ejzwn02gp1k26" d="M339.899000,210.659000L339.899000,188.879000C339.899000,186.118000,337.660000,183.879000,334.899000,183.879000L314.355000,183.879000C312.831000,177.904000,310.465000,172.267000,307.394000,167.096000L321.927000,152.563000C323.880000,150.610000,323.880000,147.445000,321.927000,145.492000L306.527000,130.092000C304.574000,128.139000,301.409000,128.139000,299.456000,130.092000L284.923000,144.625000C279.752000,141.555000,274.115000,139.189000,268.140000,137.665000L268.140000,117.120000C268.140000,114.359000,265.901000,112.120000,263.140000,112.120000L241.360000,112.120000C238.599000,112.120000,236.360000,114.359000,236.360000,117.120000L236.360000,137.664000C230.385000,139.188000,224.748000,141.554000,219.577000,144.624000L205.044000,130.091000C203.091000,128.138000,199.926000,128.138000,197.973000,130.091000L182.573000,145.491000C180.620000,147.444000,180.620000,150.609000,182.573000,152.562000L197.106000,167.095000C194.036000,172.266000,191.670000,177.903000,190.145000,183.878000L169.601000,183.878000C166.840000,183.878000,164.601000,186.117000,164.601000,188.878000L164.601000,210.658000C164.601000,213.419000,166.840000,215.658000,169.601000,215.658000L190.145000,215.658000C191.669000,221.633000,194.035000,227.270000,197.106000,232.441000L182.573000,246.974000C180.620000,248.927000,180.620000,252.092000,182.573000,254.045000L197.973000,269.445000C199.926000,271.398000,203.091000,271.398000,205.044000,269.445000L219.577000,254.912000C224.748000,257.982000,230.385000,260.348000,236.360000,261.872000L236.360000,282.416000C236.360000,285.177000,238.599000,287.416000,241.360000,287.416000L263.140000,287.416000C265.901000,287.416000,268.140000,285.177000,268.140000,282.416000L268.140000,261.872000C274.115000,260.348000,279.752000,257.982000,284.923000,254.911000L299.456000,269.444000C301.409000,271.397000,304.574000,271.397000,306.527000,269.444000L321.927000,254.044000C323.880000,252.091000,323.880000,248.926000,321.927000,246.973000L307.394000,232.440000C310.464000,227.269000,312.830000,221.632000,314.355000,215.657000L334.899000,215.657000C337.660000,215.659000,339.899000,213.420000,339.899000,210.659000ZM252.250000,230.738000C235.146000,230.738000,221.281000,216.873000,221.281000,199.769000C221.281000,182.665000,235.146000,168.800000,252.250000,168.800000C269.354000,168.800000,283.219000,182.665000,283.219000,199.769000C283.219000,216.873000,269.353000,230.738000,252.250000,230.738000Z" transform="translate(-252.250000,-199.768000)" fill="rgb(239,237,239)" stroke="none" stroke-width="1"/></g></g></svg>