<svg id="e9v7qcp7vgr1" xmlns="http://www.w3.org/2000/svg" xmlns:xlink="http://www.w3.org/1999/xlink" viewBox="0 0 512 512" shape-rendering="geometricPrecision" text-rendering="geometricPrecision" width="512" height="512"><style><![CDATA[#e9v7qcp7vgr6_tr {animation: e9v7qcp7vgr6_tr__tr 1500ms linear infinite normal forwards}@keyframes e9v7qcp7vgr6_tr__tr { 0% {transform: translate(296.949341px,251.527255px) rotate(0.186892deg);animation-timing-function: cubic-bezier(0.215000,0.610000,0.355000,1)} 33.333333% {transform: translate(296.949341px,251.527255px) rotate(-90.387576deg);animation-timing-function: cubic-bezier(0.215000,0.610000,0.355000,1)} 86.666667% {transform: translate(296.949341px,251.527255px) rotate(0.186892deg)} 100% {transform: translate(296.949341px,251.527255px) rotate(0.186892deg)} }]]></style><g id="e9v7qcp7vgr2" transform="matrix(1 0 0 1 -32.72473144000008 0)"><path id="e9v7qcp7vgr3" d="M320,415L320,497C320,505.280000,313.280000,512,305,512L272,512L272,400L305,400C313.280000,400,320,406.720000,320,415Z" fill="rgb(40,55,88)" stroke="none" stroke-width="1"/><path id="e9v7qcp7vgr4" d="M320,415L320,497C320,505.280000,313.280000,512,305,512L239,512C230.720000,512,224,505.280000,224,497L224,415C224,406.720000,230.720000,400,239,400L305,400C313.280000,400,320,406.720000,320,415Z" transform="matrix(1 0 0 1 0.00000000000003 0)" fill="rgb(66,87,150)" stroke="none" stroke-width="1"/><path id="e9v7qcp7vgr5" d="M364,145L148,145C89,145,41,193,41,252L41,416C41,424.284000,47.716000,431,56,431L456,431C464.284000,431,471,424.284000,471,416L471,252C471,193,423,145,364,145Z" fill="rgb(255,226,120)" stroke="none" stroke-width="1"/><g id="e9v7qcp7vgr6_tr" transform="translate(296.949341,251.527255) rotate(0.186892)"><g id="e9v7qcp7vgr6" transform="translate(-303.705790,-227.705164)"><path id="e9v7qcp7vgr7" d="M416,111L304,111L304,0L416,0C427.580000,0,434.790000,12.600000,428.950000,22.580000L409.680000,55.500000L409.440000,55.910000L428.860000,88.280000C434.860000,98.280000,427.660000,111,416,111Z" transform="matrix(0.00980699105465 0.99995191030692 -0.99995191030692 0.00980699105465 531.00761408997710 -76.24098867587281)" fill="rgb(221,89,88)" stroke="none" stroke-width="1"/><path id="e9v7qcp7vgr8" d="M304,0C295.716000,0,289,6.716000,289,15L289,215C289,223.284000,295.716000,230,304,230C312.284000,230,319,223.284000,319,215L319,15C319,6.716000,312.284000,0,304,0Z" transform="matrix(0.00980699105465 0.99995191030692 -0.99995191030692 0.00980699105465 530.86050921997708 -76.28021664087282)" fill="rgb(238,244,255)" stroke="none" stroke-width="1"/></g></g><path id="e9v7qcp7vgr9" d="M255,252L255,431L56,431C47.716000,431,41,424.284000,41,416L41,253.177000C41,194.133000,88.332000,145.341000,147.375000,145.002000C206.661000,144.661000,255,192.792000,255,252Z" fill="rgb(255,226,120)" stroke="none" stroke-width="1"/><path id="e9v7qcp7vgr10" d="M255,252L255,431L148,431L148,145C207,145,255,193,255,252Z" fill="rgb(255,180,84)" stroke="none" stroke-width="1"/></g></svg>