<svg id="elqvpl9jyc71" xmlns="http://www.w3.org/2000/svg" xmlns:xlink="http://www.w3.org/1999/xlink" viewBox="0 0 512 512" shape-rendering="geometricPrecision" text-rendering="geometricPrecision" width="512" height="512"><style><![CDATA[#elqvpl9jyc711_to {animation: elqvpl9jyc711_to__to 2000ms linear infinite normal forwards}@keyframes elqvpl9jyc711_to__to { 0% {transform: translate(0px,0px);animation-timing-function: cubic-bezier(0.175000,0.885000,0.320000,1.275000)} 25% {transform: translate(0.000007px,-26.267187px);animation-timing-function: cubic-bezier(0.175000,0.885000,0.320000,1.275000)} 35% {transform: translate(0.000007px,-16.811000px)} 100% {transform: translate(0.000007px,-16.811000px)} }#elqvpl9jyc711 {animation: elqvpl9jyc711_c_o 2000ms linear infinite normal forwards}@keyframes elqvpl9jyc711_c_o { 0% {opacity: 0} 25% {opacity: 1} 100% {opacity: 1} }]]></style><defs><linearGradient id="elqvpl9jyc76-fill" x1="-51.313000" y1="60.687000" x2="323.314000" y2="435.315000" spreadMethod="pad" gradientUnits="userSpaceOnUse"><stop id="elqvpl9jyc76-fill-0" offset="1.100000%" stop-color="rgb(220,220,227)"/><stop id="elqvpl9jyc76-fill-1" offset="100%" stop-color="rgb(237,237,241)"/></linearGradient><linearGradient id="elqvpl9jyc77-fill" x1="3.339000" y1="62.817000" x2="377.966000" y2="437.444000" spreadMethod="pad" gradientUnits="userSpaceOnUse"><stop id="elqvpl9jyc77-fill-0" offset="1.100000%" stop-color="rgb(96,96,130)"/><stop id="elqvpl9jyc77-fill-1" offset="100%" stop-color="rgb(131,131,158)"/></linearGradient><linearGradient id="elqvpl9jyc712-fill" x1="133.515000" y1="374.485000" x2="390.963000" y2="117.037000" spreadMethod="pad" gradientUnits="userSpaceOnUse"><stop id="elqvpl9jyc712-fill-0" offset="1.100000%" stop-color="rgb(248,199,63)"/><stop id="elqvpl9jyc712-fill-1" offset="100%" stop-color="rgb(250,218,127)"/></linearGradient><linearGradient id="elqvpl9jyc713-fill" x1="219.862000" y1="308.833000" x2="324.138000" y2="204.558000" spreadMethod="pad" gradientUnits="userSpaceOnUse"><stop id="elqvpl9jyc713-fill-0" offset="1.100000%" stop-color="rgb(253,236,191)"/><stop id="elqvpl9jyc713-fill-1" offset="100%" stop-color="rgb(254,249,234)"/></linearGradient></defs><g id="elqvpl9jyc72"><g id="elqvpl9jyc73" transform="matrix(1 0 0 1 25.95775603999999 0)"><g id="elqvpl9jyc74" transform="matrix(1 0 0 1 37.39024353000002 0)"><g id="elqvpl9jyc75"><rect id="elqvpl9jyc76" width="272" height="496" rx="16" ry="0" transform="matrix(1 0 0 1 56.65200000000000 7.99999999999998)" fill="url(#elqvpl9jyc76-fill)" stroke="none" stroke-width="1"/><path id="elqvpl9jyc77" d="M56.652000,64.087000L328.652000,64.087000L328.652000,440.174000L56.652000,440.174000Z" fill="url(#elqvpl9jyc77-fill)" stroke="none" stroke-width="1"/><g id="elqvpl9jyc78"><path id="elqvpl9jyc79" d="M210.700000,484.152000L175.739000,484.152000C169.111583,484.152000,163.739000,478.779417,163.739000,472.152000C163.739000,465.524583,169.111583,460.152000,175.739000,460.152000L210.700000,460.152000C217.327417,460.152000,222.700000,465.524583,222.700000,472.152000C222.700000,478.779417,217.327417,484.152000,210.700000,484.152000Z" fill="rgb(149,149,172)" stroke="none" stroke-width="1"/><circle id="elqvpl9jyc710" r="12" transform="matrix(1 0 0 1 192.65199999999999 39.93500000000000)" fill="rgb(149,149,172)" stroke="none" stroke-width="1"/></g></g></g><g id="elqvpl9jyc711_to" transform="translate(0,0)"><g id="elqvpl9jyc711" transform="translate(0,0)" opacity="0"><path id="elqvpl9jyc712" d="M380,116L164,116C150.751334,116.014880,140.014880,126.751334,140,140L140,376C139.998653,380.614340,142.643250,384.820724,146.802268,386.819399C150.961287,388.818074,155.897932,388.254963,159.500000,385.371000L196.209000,356L380,356C393.248666,355.985120,403.985120,345.248666,404,332L404,140C403.985120,126.751334,393.248666,116.014880,380,116Z" transform="matrix(1 0 0 1 78.04224404000001 0.12869164999987)" fill="url(#elqvpl9jyc712-fill)" stroke="none" stroke-width="1"/><path id="elqvpl9jyc713" d="M336.485000,279.515000L324,267.029000L324,233.941000C324.025874,224.388063,320.229143,215.221751,313.456000,208.485000L300,195.029000L300,192C300,176.536027,287.463973,164,272,164C256.536027,164,244,176.536027,244,192L244,195.029000L230.544000,208.485000C223.770857,215.221751,219.974126,224.388063,220,233.941000L220,267.029000L207.515000,279.515000C204.083261,282.946966,203.056702,288.108181,204.913977,292.592125C206.771251,297.076069,211.146628,299.999772,216,300L328,300C332.853372,299.999772,337.228749,297.076069,339.086023,292.592125C340.943298,288.108181,339.916739,282.946966,336.485000,279.515000Z" transform="matrix(1 0 0 1 78.60974404000001 0.12869164999989)" fill="url(#elqvpl9jyc713-fill)" stroke="none" stroke-width="1"/></g></g></g></g></svg>