<svg id="ekc5h8nx0fj1" xmlns="http://www.w3.org/2000/svg" xmlns:xlink="http://www.w3.org/1999/xlink" viewBox="0 0 512 512" shape-rendering="geometricPrecision" text-rendering="geometricPrecision"><style><![CDATA[#ekc5h8nx0fj6_to {animation: ekc5h8nx0fj6_to__to 1500ms linear infinite normal forwards}@keyframes ekc5h8nx0fj6_to__to { 0% {transform: translate(0px,0px);animation-timing-function: cubic-bezier(0.420000,0,0.215000,1.005000)} 53.333333% {transform: translate(-49.729000px,0px);animation-timing-function: cubic-bezier(0.420000,0,0.215000,1.005000)} 100% {transform: translate(-0.706004px,0px)} }#ekc5h8nx0fj10_to {animation: ekc5h8nx0fj10_to__to 1500ms linear infinite normal forwards}@keyframes ekc5h8nx0fj10_to__to { 0% {transform: translate(0px,0px);animation-timing-function: cubic-bezier(0.420000,0,0.215000,1.005000)} 53.333333% {transform: translate(53.783502px,-4.385994px);animation-timing-function: cubic-bezier(0.420000,0,0.215000,1.005000)} 100% {transform: translate(0.198443px,-0.183244px)} }#ekc5h8nx0fj11_to {animation: ekc5h8nx0fj11_to__to 1500ms linear infinite normal forwards}@keyframes ekc5h8nx0fj11_to__to { 0% {transform: translate(0px,0px);animation-timing-function: cubic-bezier(0.420000,0,0.215000,1.005000)} 53.333333% {transform: translate(53.783502px,-4.385994px);animation-timing-function: cubic-bezier(0.420000,0,0.215000,1.005000)} 100% {transform: translate(0.198443px,-0.183244px)} }#ekc5h8nx0fj14_to {animation: ekc5h8nx0fj14_to__to 1500ms linear infinite normal forwards}@keyframes ekc5h8nx0fj14_to__to { 0% {transform: translate(0px,0px);animation-timing-function: cubic-bezier(0.420000,0,0.215000,1.005000)} 53.333333% {transform: translate(53.783502px,-4.385994px);animation-timing-function: cubic-bezier(0.420000,0,0.215000,1.005000)} 100% {transform: translate(0.198443px,-0.183244px)} }]]></style><g id="ekc5h8nx0fj2"><g id="ekc5h8nx0fj3"><g id="ekc5h8nx0fj4"><g id="ekc5h8nx0fj5"><g id="ekc5h8nx0fj6_to" transform="translate(0,0)"><g id="ekc5h8nx0fj6" transform="translate(0,0)"><path id="ekc5h8nx0fj7" d="M361.233000,444.267000L361.233000,22.656000C361.233000,10.144000,351.090000,0,338.577000,0L72.385000,0C59.872000,0,49.729000,10.144000,49.729000,22.656000L49.729000,444.267000C49.729000,456.780000,59.873000,466.923000,72.385000,466.923000L338.577000,466.923000C351.090000,466.924000,361.233000,456.780000,361.233000,444.267000Z" fill="rgb(255,224,125)" stroke="none" stroke-width="1"/><path id="ekc5h8nx0fj8" d="M394.539000,0L329.306000,0C341.819000,0,351.962000,10.144000,351.962000,22.656000L351.962000,444.267000C351.962000,456.780000,341.819000,466.923000,329.306000,466.923000L394.539000,466.923000C407.052000,466.923000,417.195000,456.779000,417.195000,444.267000L417.195000,22.656000C417.195000,10.144000,407.052000,0,394.539000,0Z" fill="rgb(255,208,100)" stroke="none" stroke-width="1"/></g></g><g id="ekc5h8nx0fj9" transform="matrix(1 0 0 1 -4.05450201000005 4.38599417999880)"><g id="ekc5h8nx0fj10_to" transform="translate(0,0)"><path id="ekc5h8nx0fj10" d="M439.615000,45.076000L374.301000,45.076000C386.814000,45.076000,396.958000,55.220000,396.958000,67.733000L396.958000,489.344000C396.958000,501.857000,386.814000,512,374.301000,512L439.615000,512C452.128000,512,462.271000,501.856000,462.271000,489.344000L462.271000,67.733000C462.271000,55.220000,452.128000,45.076000,439.615000,45.076000Z" transform="translate(0,0)" fill="rgb(228,246,255)" stroke="none" stroke-width="1"/></g><g id="ekc5h8nx0fj11_to" transform="translate(0,0)"><path id="ekc5h8nx0fj11" d="M383.572000,512C396.085000,512,406.229000,501.856000,406.229000,489.344000L406.229000,67.733000C406.229000,55.227000,396.096000,45.088000,383.593000,45.077000L117.461000,45.077000C104.948000,45.077000,94.805000,55.221000,94.805000,67.733000L94.805000,489.344000C94.805000,501.857000,104.949000,512,117.461000,512Z" transform="translate(0,0)" fill="rgb(244,251,255)" stroke="none" stroke-width="1"/></g></g></g></g><g id="ekc5h8nx0fj12" transform="matrix(1 0 0 1 -10.50687500000004 -4.20274999999999)"><g id="ekc5h8nx0fj13"><g id="ekc5h8nx0fj14_to" transform="translate(0,0)"><g id="ekc5h8nx0fj14" transform="translate(0,0)"><g id="ekc5h8nx0fj15"><path id="ekc5h8nx0fj16" d="M236.776000,226.895000L155.513000,226.895000C146.716000,226.895000,139.585000,219.764000,139.585000,210.967000L139.585000,110.203000C139.585000,101.406000,146.716000,94.275000,155.513000,94.275000L236.776000,94.275000C245.573000,94.275000,252.704000,101.406000,252.704000,110.203000L252.704000,210.968000C252.704000,219.764000,245.573000,226.895000,236.776000,226.895000Z" fill="rgb(190,216,251)" stroke="none" stroke-width="1"/><path id="ekc5h8nx0fj17" d="M196.145000,176.018000C170.384000,176.018000,148.457000,192.407000,140.204000,215.325000C142.101000,222.001000,148.229000,226.896000,155.513000,226.896000L236.776000,226.896000C244.060000,226.896000,250.188000,222.001000,252.085000,215.325000C243.833000,192.407000,221.906000,176.018000,196.145000,176.018000Z" fill="rgb(64,112,147)" stroke="none" stroke-width="1"/><circle id="ekc5h8nx0fj18" r="25.370000" transform="matrix(1 0 0 1 196.14500000000001 156.62400000000000)" fill="rgb(54,94,125)" stroke="none" stroke-width="1"/></g><g id="ekc5h8nx0fj19"><g id="ekc5h8nx0fj20"><path id="ekc5h8nx0fj21" d="M408.763000,290.650000L140.204000,290.650000C135.937000,290.650000,132.478000,287.191000,132.478000,282.924000C132.478000,278.657000,135.937000,275.198000,140.204000,275.198000L408.763000,275.198000C413.030000,275.198000,416.489000,278.657000,416.489000,282.924000C416.489000,287.191000,413.030000,290.650000,408.763000,290.650000Z" fill="rgb(64,112,147)" stroke="none" stroke-width="1"/></g><g id="ekc5h8nx0fj22"><path id="ekc5h8nx0fj23" d="M408.763000,340.433000L140.204000,340.433000C135.937000,340.433000,132.478000,336.974000,132.478000,332.707000C132.478000,328.440000,135.937000,324.981000,140.204000,324.981000L408.763000,324.981000C413.030000,324.981000,416.489000,328.440000,416.489000,332.707000C416.489000,336.974000,413.030000,340.433000,408.763000,340.433000Z" fill="rgb(64,112,147)" stroke="none" stroke-width="1"/></g><g id="ekc5h8nx0fj24"><path id="ekc5h8nx0fj25" d="M408.763000,390.216000L140.204000,390.216000C135.937000,390.216000,132.478000,386.757000,132.478000,382.490000C132.478000,378.223000,135.937000,374.764000,140.204000,374.764000L408.763000,374.764000C413.030000,374.764000,416.489000,378.223000,416.489000,382.490000C416.489000,386.757000,413.030000,390.216000,408.763000,390.216000Z" fill="rgb(64,112,147)" stroke="none" stroke-width="1"/></g><g id="ekc5h8nx0fj26"><path id="ekc5h8nx0fj27" d="M408.763000,440L140.204000,440C135.937000,440,132.478000,436.541000,132.478000,432.274000C132.478000,428.007000,135.937000,424.548000,140.204000,424.548000L408.763000,424.548000C413.030000,424.548000,416.489000,428.007000,416.489000,432.274000C416.489000,436.541000,413.030000,440,408.763000,440Z" fill="rgb(64,112,147)" stroke="none" stroke-width="1"/></g></g></g></g></g></g><g id="ekc5h8nx0fj28" transform="matrix(1 0 0 1 -10.50687500000004 -4.20274999999999)"><g id="ekc5h8nx0fj29"/><g id="ekc5h8nx0fj30"/></g></g></g></svg>